<?xml version="1.0" encoding="utf-8"?>
<!-- Generator: Adobe Illustrator 25.2.3, SVG Export Plug-In . SVG Version: 6.00 Build 0)  -->
<svg version="1.1" id="Layer_1" xmlns="http://www.w3.org/2000/svg" xmlns:xlink="http://www.w3.org/1999/xlink" x="0px" y="0px"
	 viewBox="0 0 1366 768" style="enable-background:new 0 0 1366 768;" xml:space="preserve">
<style type="text/css">
	.st0{fill:#FFFFFF;}
	.st1{fill:#FFFFFF;stroke:#000000;stroke-width:2;stroke-miterlimit:10;}
</style>
<g>
	<g>
		<ellipse class="st0" cx="345.5" cy="270" rx="56" ry="75.5"/>
		<path d="M345.5,197c29.5,0,53.5,32.7,53.5,73s-24,73-53.5,73S292,310.3,292,270S316,197,345.5,197 M345.5,192
			c-32.3,0-58.5,34.9-58.5,78s26.2,78,58.5,78s58.5-34.9,58.5-78S377.8,192,345.5,192L345.5,192z"/>
	</g>
	<g>
		<path class="st0" d="M341.8,352.5l1.8-2.1c0.5-0.6,1.1-0.6,1.4-0.6s0.9,0.1,1.4,0.6l1.8,2.1H341.8z"/>
		<path d="M345,347.3c-1.2,0-2.4,0.5-3.3,1.5l-5.4,6.2h17.3l-5.4-6.2C347.4,347.8,346.2,347.3,345,347.3L345,347.3z"/>
	</g>
	<path class="st1" d="M345,353c0,0-29,42,2,72s29,83-12,101"/>
</g>
</svg>
